<svg xmlns="http://www.w3.org/2000/svg" xmlns:xlink="http://www.w3.org/1999/xlink" viewBox="0 0 1921 1081"><defs><style>.cls-1{fill:none;}.cls-2{fill:#282828;}.cls-3{clip-path:url(#clip-path);}.cls-4{fill:#fff;}.cls-5{clip-path:url(#clip-path-2);}.cls-6{fill:url(#radial-gradient);}</style><clipPath id="clip-path" transform="translate(-97.62 -47.68)"><path class="cls-1" d="M57.4,132.56,0,99.42V33.14L57.4,0l57.4,33.14V99.42ZM235.8,99.42V33.14L178.4,0,121,33.14V99.42l57.4,33.14Zm121,0V33.14L299.4,0,242,33.14V99.42l57.4,33.14Zm121,0V33.14L420.4,0,363,33.14V99.42l57.4,33.14Zm121,0V33.14L541.4,0,484,33.14V99.42l57.4,33.14Zm121,0V33.14L662.4,0,605,33.14V99.42l57.4,33.14Zm121,0V33.14L783.4,0,726,33.14V99.42l57.4,33.14Zm121,0V33.14L904.4,0,847,33.14V99.42l57.4,33.14Zm121,0V33.14L1025.4,0,968,33.14V99.42l57.4,33.14Zm121,0V33.14L1146.4,0,1089,33.14V99.42l57.4,33.14Zm121,0V33.14L1267.4,0,1210,33.14V99.42l57.4,33.14Zm121,0V33.14L1388.4,0,1331,33.14V99.42l57.4,33.14Zm121,0V33.14L1509.4,0,1452,33.14V99.42l57.4,33.14Zm121,0V33.14L1630.4,0,1573,33.14V99.42l57.4,33.14Zm121,0V33.14L1751.4,0,1694,33.14V99.42l57.4,33.14Zm121,0V33.14L1872.4,0,1815,33.14V99.42l57.4,33.14Zm121,0V33.14L1993.4,0,1936,33.14V99.42l57.4,33.14Zm-1876,103V136.14L117.4,103,60,136.14v66.28l57.4,33.14Zm121,0V136.14L238.4,103,181,136.14v66.28l57.4,33.14Zm121,0V136.14L359.4,103,302,136.14v66.28l57.4,33.14Zm121,0V136.14L480.4,103,423,136.14v66.28l57.4,33.14Zm121,0V136.14L601.4,103,544,136.14v66.28l57.4,33.14Zm121,0V136.14L722.4,103,665,136.14v66.28l57.4,33.14Zm121,0V136.14L843.4,103,786,136.14v66.28l57.4,33.14Zm121,0V136.14L964.4,103,907,136.14v66.28l57.4,33.14Zm121,0V136.14L1085.4,103,1028,136.14v66.28l57.4,33.14Zm121,0V136.14L1206.4,103,1149,136.14v66.28l57.4,33.14Zm121,0V136.14L1327.4,103,1270,136.14v66.28l57.4,33.14Zm121,0V136.14L1448.4,103,1391,136.14v66.28l57.4,33.14Zm121,0V136.14L1569.4,103,1512,136.14v66.28l57.4,33.14Zm121,0V136.14L1690.4,103,1633,136.14v66.28l57.4,33.14Zm121,0V136.14L1811.4,103,1754,136.14v66.28l57.4,33.14Zm121,0V136.14L1932.4,103,1875,136.14v66.28l57.4,33.14Zm121,0V136.14L2053.4,103,1996,136.14v66.28l57.4,33.14Zm-1996,104V240.14L57.4,207,0,240.14v66.28l57.4,33.14Zm121,0V240.14L178.4,207,121,240.14v66.28l57.4,33.14Zm121,0V240.14L299.4,207,242,240.14v66.28l57.4,33.14Zm121,0V240.14L420.4,207,363,240.14v66.28l57.4,33.14Zm121,0V240.14L541.4,207,484,240.14v66.28l57.4,33.14Zm121,0V240.14L662.4,207,605,240.14v66.28l57.4,33.14Zm121,0V240.14L783.4,207,726,240.14v66.28l57.4,33.14Zm121,0V240.14L904.4,207,847,240.14v66.28l57.4,33.14Zm121,0V240.14L1025.4,207,968,240.14v66.28l57.4,33.14Zm121,0V240.14L1146.4,207,1089,240.14v66.28l57.4,33.14Zm121,0V240.14L1267.4,207,1210,240.14v66.28l57.4,33.14Zm121,0V240.14L1388.4,207,1331,240.14v66.28l57.4,33.14Zm121,0V240.14L1509.4,207,1452,240.14v66.28l57.4,33.14Zm121,0V240.14L1630.4,207,1573,240.14v66.28l57.4,33.14Zm121,0V240.14L1751.4,207,1694,240.14v66.28l57.4,33.14Zm121,0V240.14L1872.4,207,1815,240.14v66.28l57.4,33.14Zm121,0V240.14L1993.4,207,1936,240.14v66.28l57.4,33.14Zm-1876,103V343.14L117.4,310,60,343.14v66.28l57.4,33.14Zm121,0V343.14L238.4,310,181,343.14v66.28l57.4,33.14Zm121,0V343.14L359.4,310,302,343.14v66.28l57.4,33.14Zm121,0V343.14L480.4,310,423,343.14v66.28l57.4,33.14Zm121,0V343.14L601.4,310,544,343.14v66.28l57.4,33.14Zm121,0V343.14L722.4,310,665,343.14v66.28l57.4,33.14Zm121,0V343.14L843.4,310,786,343.14v66.28l57.4,33.14Zm121,0V343.14L964.4,310,907,343.14v66.28l57.4,33.14Zm121,0V343.14L1085.4,310,1028,343.14v66.28l57.4,33.14Zm121,0V343.14L1206.4,310,1149,343.14v66.28l57.4,33.14Zm121,0V343.14L1327.4,310,1270,343.14v66.28l57.4,33.14Zm121,0V343.14L1448.4,310,1391,343.14v66.28l57.4,33.14Zm121,0V343.14L1569.4,310,1512,343.14v66.28l57.4,33.14Zm121,0V343.14L1690.4,310,1633,343.14v66.28l57.4,33.14Zm121,0V343.14L1811.4,310,1754,343.14v66.28l57.4,33.14Zm121,0V343.14L1932.4,310,1875,343.14v66.28l57.4,33.14Zm121,0V343.14L2053.4,310,1996,343.14v66.28l57.4,33.14Zm-1996,104V447.14L57.4,414,0,447.14v66.28l57.4,33.14Zm121,0V447.14L178.4,414,121,447.14v66.28l57.4,33.14Zm121,0V447.14L299.4,414,242,447.14v66.28l57.4,33.14Zm121,0V447.14L420.4,414,363,447.14v66.28l57.4,33.14Zm121,0V447.14L541.4,414,484,447.14v66.28l57.4,33.14Zm121,0V447.14L662.4,414,605,447.14v66.28l57.4,33.14Zm121,0V447.14L783.4,414,726,447.14v66.28l57.4,33.14Zm121,0V447.14L904.4,414,847,447.14v66.28l57.4,33.14Zm121,0V447.14L1025.4,414,968,447.14v66.28l57.4,33.14Zm121,0V447.14L1146.4,414,1089,447.14v66.28l57.4,33.14Zm121,0V447.14L1267.4,414,1210,447.14v66.28l57.4,33.14Zm121,0V447.14L1388.4,414,1331,447.14v66.28l57.4,33.14Zm121,0V447.14L1509.4,414,1452,447.14v66.28l57.4,33.14Zm121,0V447.14L1630.4,414,1573,447.14v66.28l57.4,33.14Zm121,0V447.14L1751.4,414,1694,447.14v66.28l57.4,33.14Zm121,0V447.14L1872.4,414,1815,447.14v66.28l57.4,33.14Zm121,0V447.14L1993.4,414,1936,447.14v66.28l57.4,33.14Zm-1876,103V550.14L117.4,517,60,550.14v66.28l57.4,33.14Zm121,0V550.14L238.4,517,181,550.14v66.28l57.4,33.14Zm121,0V550.14L359.4,517,302,550.14v66.28l57.4,33.14Zm121,0V550.14L480.4,517,423,550.14v66.28l57.4,33.14Zm121,0V550.14L601.4,517,544,550.14v66.28l57.4,33.14Zm121,0V550.14L722.4,517,665,550.14v66.28l57.4,33.14Zm121,0V550.14L843.4,517,786,550.14v66.28l57.4,33.14Zm121,0V550.14L964.4,517,907,550.14v66.28l57.4,33.14Zm121,0V550.14L1085.4,517,1028,550.14v66.28l57.4,33.14Zm121,0V550.14L1206.4,517,1149,550.14v66.28l57.4,33.14Zm121,0V550.14L1327.4,517,1270,550.14v66.28l57.4,33.14Zm121,0V550.14L1448.4,517,1391,550.14v66.28l57.4,33.14Zm121,0V550.14L1569.4,517,1512,550.14v66.28l57.4,33.14Zm121,0V550.14L1690.4,517,1633,550.14v66.28l57.4,33.14Zm121,0V550.14L1811.4,517,1754,550.14v66.28l57.4,33.14Zm121,0V550.14L1932.4,517,1875,550.14v66.28l57.4,33.14Zm121,0V550.14L2053.4,517,1996,550.14v66.28l57.4,33.14Zm-1996,104V654.14L57.4,621,0,654.14v66.28l57.4,33.14Zm121,0V654.14L178.4,621,121,654.14v66.28l57.4,33.14Zm121,0V654.14L299.4,621,242,654.14v66.28l57.4,33.14Zm121,0V654.14L420.4,621,363,654.14v66.28l57.4,33.14Zm121,0V654.14L541.4,621,484,654.14v66.28l57.4,33.14Zm121,0V654.14L662.4,621,605,654.14v66.28l57.4,33.14Zm121,0V654.14L783.4,621,726,654.14v66.28l57.4,33.14Zm121,0V654.14L904.4,621,847,654.14v66.28l57.4,33.14Zm121,0V654.14L1025.4,621,968,654.14v66.28l57.4,33.14Zm121,0V654.14L1146.4,621,1089,654.14v66.28l57.4,33.14Zm121,0V654.14L1267.4,621,1210,654.14v66.28l57.4,33.14Zm121,0V654.14L1388.4,621,1331,654.14v66.28l57.4,33.14Zm121,0V654.14L1509.4,621,1452,654.14v66.28l57.4,33.14Zm121,0V654.14L1630.4,621,1573,654.14v66.28l57.4,33.14Zm121,0V654.14L1751.4,621,1694,654.14v66.28l57.4,33.14Zm121,0V654.14L1872.4,621,1815,654.14v66.28l57.4,33.14Zm121,0V654.14L1993.4,621,1936,654.14v66.28l57.4,33.14Zm-1876,103V757.14L117.4,724,60,757.14v66.28l57.4,33.14Zm121,0V757.14L238.4,724,181,757.14v66.28l57.4,33.14Zm121,0V757.14L359.4,724,302,757.14v66.28l57.4,33.14Zm121,0V757.14L480.4,724,423,757.14v66.28l57.4,33.14Zm121,0V757.14L601.4,724,544,757.14v66.28l57.4,33.14Zm121,0V757.14L722.4,724,665,757.14v66.28l57.4,33.14Zm121,0V757.14L843.4,724,786,757.14v66.28l57.4,33.14Zm121,0V757.14L964.4,724,907,757.14v66.28l57.4,33.14Zm121,0V757.14L1085.4,724,1028,757.14v66.28l57.4,33.14Zm121,0V757.14L1206.4,724,1149,757.14v66.28l57.4,33.14Zm121,0V757.14L1327.4,724,1270,757.14v66.28l57.4,33.14Zm121,0V757.14L1448.4,724,1391,757.14v66.28l57.4,33.14Zm121,0V757.14L1569.4,724,1512,757.14v66.28l57.4,33.14Zm121,0V757.14L1690.4,724,1633,757.14v66.28l57.4,33.14Zm121,0V757.14L1811.4,724,1754,757.14v66.28l57.4,33.14Zm121,0V757.14L1932.4,724,1875,757.14v66.28l57.4,33.14Zm121,0V757.14L2053.4,724,1996,757.14v66.28l57.4,33.14Zm-1996,104V861.14L57.4,828,0,861.14v66.28l57.4,33.14Zm121,0V861.14L178.4,828,121,861.14v66.28l57.4,33.14Zm121,0V861.14L299.4,828,242,861.14v66.28l57.4,33.14Zm121,0V861.14L420.4,828,363,861.14v66.28l57.4,33.14Zm121,0V861.14L541.4,828,484,861.14v66.28l57.4,33.14Zm121,0V861.14L662.4,828,605,861.14v66.28l57.4,33.14Zm121,0V861.14L783.4,828,726,861.14v66.28l57.4,33.14Zm121,0V861.14L904.4,828,847,861.14v66.28l57.4,33.14Zm121,0V861.14L1025.4,828,968,861.14v66.28l57.4,33.14Zm121,0V861.14L1146.4,828,1089,861.14v66.28l57.4,33.14Zm121,0V861.14L1267.4,828,1210,861.14v66.28l57.4,33.14Zm121,0V861.14L1388.4,828,1331,861.14v66.28l57.4,33.14Zm121,0V861.14L1509.4,828,1452,861.14v66.28l57.4,33.14Zm121,0V861.14L1630.4,828,1573,861.14v66.28l57.4,33.14Zm121,0V861.14L1751.4,828,1694,861.14v66.28l57.4,33.14Zm121,0V861.14L1872.4,828,1815,861.14v66.28l57.4,33.14Zm121,0V861.14L1993.4,828,1936,861.14v66.28l57.4,33.14Zm-1876,103V964.14L117.4,931,60,964.14v66.28l57.4,33.14Zm121,0V964.14L238.4,931,181,964.14v66.28l57.4,33.14Zm121,0V964.14L359.4,931,302,964.14v66.28l57.4,33.14Zm121,0V964.14L480.4,931,423,964.14v66.28l57.4,33.14Zm121,0V964.14L601.4,931,544,964.14v66.28l57.4,33.14Zm121,0V964.14L722.4,931,665,964.14v66.28l57.4,33.14Zm121,0V964.14L843.4,931,786,964.14v66.28l57.4,33.14Zm121,0V964.14L964.4,931,907,964.14v66.28l57.4,33.14Zm121,0V964.14L1085.4,931,1028,964.14v66.28l57.4,33.14Zm121,0V964.14L1206.4,931,1149,964.14v66.28l57.4,33.14Zm121,0V964.14L1327.4,931,1270,964.14v66.28l57.4,33.14Zm121,0V964.14L1448.4,931,1391,964.14v66.28l57.4,33.14Zm121,0V964.14L1569.4,931,1512,964.14v66.28l57.4,33.14Zm121,0V964.14L1690.4,931,1633,964.14v66.28l57.4,33.14Zm121,0V964.14L1811.4,931,1754,964.14v66.28l57.4,33.14Zm121,0V964.14L1932.4,931,1875,964.14v66.28l57.4,33.14Zm121,0V964.14L2053.4,931,1996,964.14v66.28l57.4,33.14Zm-1996,104v-66.28L57.4,1035,0,1068.14v66.28l57.4,33.14Zm121,0v-66.28L178.4,1035,121,1068.14v66.28l57.4,33.14Zm121,0v-66.28L299.4,1035,242,1068.14v66.28l57.4,33.14Zm121,0v-66.28L420.4,1035,363,1068.14v66.28l57.4,33.14Zm121,0v-66.28L541.4,1035,484,1068.14v66.28l57.4,33.14Zm121,0v-66.28L662.4,1035,605,1068.14v66.28l57.4,33.14Zm121,0v-66.28L783.4,1035,726,1068.14v66.28l57.4,33.14Zm121,0v-66.28L904.4,1035,847,1068.14v66.28l57.4,33.14Zm121,0v-66.28L1025.4,1035,968,1068.14v66.28l57.4,33.14Zm121,0v-66.28L1146.4,1035l-57.4,33.14v66.28l57.4,33.14Zm121,0v-66.28L1267.4,1035l-57.4,33.14v66.28l57.4,33.14Zm121,0v-66.28L1388.4,1035l-57.4,33.14v66.28l57.4,33.14Zm121,0v-66.28L1509.4,1035l-57.4,33.14v66.28l57.4,33.14Zm121,0v-66.28L1630.4,1035l-57.4,33.14v66.28l57.4,33.14Zm121,0v-66.28L1751.4,1035l-57.4,33.14v66.28l57.4,33.14Zm121,0v-66.28L1872.4,1035l-57.4,33.14v66.28l57.4,33.14Zm121,0v-66.28L1993.4,1035l-57.4,33.14v66.28l57.4,33.14Z"/></clipPath><clipPath id="clip-path-2" transform="translate(-97.62 -47.68)"><path class="cls-1" d="M58.4,133.56,1,100.42V34.14L58.4,1l57.4,33.14v66.28Zm178.4-33.14V34.14L179.4,1,122,34.14v66.28l57.4,33.14Zm121,0V34.14L300.4,1,243,34.14v66.28l57.4,33.14Zm121,0V34.14L421.4,1,364,34.14v66.28l57.4,33.14Zm121,0V34.14L542.4,1,485,34.14v66.28l57.4,33.14Zm121,0V34.14L663.4,1,606,34.14v66.28l57.4,33.14Zm121,0V34.14L784.4,1,727,34.14v66.28l57.4,33.14Zm121,0V34.14L905.4,1,848,34.14v66.28l57.4,33.14Zm121,0V34.14L1026.4,1,969,34.14v66.28l57.4,33.14Zm121,0V34.14L1147.4,1,1090,34.14v66.28l57.4,33.14Zm121,0V34.14L1268.4,1,1211,34.14v66.28l57.4,33.14Zm121,0V34.14L1389.4,1,1332,34.14v66.28l57.4,33.14Zm121,0V34.14L1510.4,1,1453,34.14v66.28l57.4,33.14Zm121,0V34.14L1631.4,1,1574,34.14v66.28l57.4,33.14Zm121,0V34.14L1752.4,1,1695,34.14v66.28l57.4,33.14Zm121,0V34.14L1873.4,1,1816,34.14v66.28l57.4,33.14Zm121,0V34.14L1994.4,1,1937,34.14v66.28l57.4,33.14Zm-1876,103V137.14L118.4,104,61,137.14v66.28l57.4,33.14Zm121,0V137.14L239.4,104,182,137.14v66.28l57.4,33.14Zm121,0V137.14L360.4,104,303,137.14v66.28l57.4,33.14Zm121,0V137.14L481.4,104,424,137.14v66.28l57.4,33.14Zm121,0V137.14L602.4,104,545,137.14v66.28l57.4,33.14Zm121,0V137.14L723.4,104,666,137.14v66.28l57.4,33.14Zm121,0V137.14L844.4,104,787,137.14v66.28l57.4,33.14Zm121,0V137.14L965.4,104,908,137.14v66.28l57.4,33.14Zm121,0V137.14L1086.4,104,1029,137.14v66.28l57.4,33.14Zm121,0V137.14L1207.4,104,1150,137.14v66.28l57.4,33.14Zm121,0V137.14L1328.4,104,1271,137.14v66.28l57.4,33.14Zm121,0V137.14L1449.4,104,1392,137.14v66.28l57.4,33.14Zm121,0V137.14L1570.4,104,1513,137.14v66.28l57.4,33.14Zm121,0V137.14L1691.4,104,1634,137.14v66.28l57.4,33.14Zm121,0V137.14L1812.4,104,1755,137.14v66.28l57.4,33.14Zm121,0V137.14L1933.4,104,1876,137.14v66.28l57.4,33.14Zm121,0V137.14L2054.4,104,1997,137.14v66.28l57.4,33.14Zm-1996,104V241.14L58.4,208,1,241.14v66.28l57.4,33.14Zm121,0V241.14L179.4,208,122,241.14v66.28l57.4,33.14Zm121,0V241.14L300.4,208,243,241.14v66.28l57.4,33.14Zm121,0V241.14L421.4,208,364,241.14v66.28l57.4,33.14Zm121,0V241.14L542.4,208,485,241.14v66.28l57.4,33.14Zm121,0V241.14L663.4,208,606,241.14v66.28l57.4,33.14Zm121,0V241.14L784.4,208,727,241.14v66.28l57.4,33.14Zm121,0V241.14L905.4,208,848,241.14v66.28l57.4,33.14Zm121,0V241.14L1026.4,208,969,241.14v66.28l57.4,33.14Zm121,0V241.14L1147.4,208,1090,241.14v66.28l57.4,33.14Zm121,0V241.14L1268.4,208,1211,241.14v66.28l57.4,33.14Zm121,0V241.14L1389.4,208,1332,241.14v66.28l57.4,33.14Zm121,0V241.14L1510.4,208,1453,241.14v66.28l57.4,33.14Zm121,0V241.14L1631.4,208,1574,241.14v66.28l57.4,33.14Zm121,0V241.14L1752.4,208,1695,241.14v66.28l57.4,33.14Zm121,0V241.14L1873.4,208,1816,241.14v66.28l57.4,33.14Zm121,0V241.14L1994.4,208,1937,241.14v66.28l57.4,33.14Zm-1876,103V344.14L118.4,311,61,344.14v66.28l57.4,33.14Zm121,0V344.14L239.4,311,182,344.14v66.28l57.4,33.14Zm121,0V344.14L360.4,311,303,344.14v66.28l57.4,33.14Zm121,0V344.14L481.4,311,424,344.14v66.28l57.4,33.14Zm121,0V344.14L602.4,311,545,344.14v66.28l57.4,33.14Zm121,0V344.14L723.4,311,666,344.14v66.28l57.4,33.14Zm121,0V344.14L844.4,311,787,344.14v66.28l57.4,33.14Zm121,0V344.14L965.4,311,908,344.14v66.28l57.4,33.14Zm121,0V344.14L1086.4,311,1029,344.14v66.28l57.4,33.14Zm121,0V344.14L1207.4,311,1150,344.14v66.28l57.4,33.14Zm121,0V344.14L1328.4,311,1271,344.14v66.28l57.4,33.14Zm121,0V344.14L1449.4,311,1392,344.14v66.28l57.4,33.14Zm121,0V344.14L1570.4,311,1513,344.14v66.28l57.4,33.14Zm121,0V344.14L1691.4,311,1634,344.14v66.28l57.4,33.14Zm121,0V344.14L1812.4,311,1755,344.14v66.28l57.4,33.14Zm121,0V344.14L1933.4,311,1876,344.14v66.28l57.4,33.14Zm121,0V344.14L2054.4,311,1997,344.14v66.28l57.4,33.14Zm-1996,104V448.14L58.4,415,1,448.14v66.28l57.4,33.14Zm121,0V448.14L179.4,415,122,448.14v66.28l57.4,33.14Zm121,0V448.14L300.4,415,243,448.14v66.28l57.4,33.14Zm121,0V448.14L421.4,415,364,448.14v66.28l57.4,33.14Zm121,0V448.14L542.4,415,485,448.14v66.28l57.4,33.14Zm121,0V448.14L663.4,415,606,448.14v66.28l57.4,33.14Zm121,0V448.14L784.4,415,727,448.14v66.28l57.4,33.14Zm121,0V448.14L905.4,415,848,448.14v66.28l57.4,33.14Zm121,0V448.14L1026.4,415,969,448.14v66.28l57.4,33.14Zm121,0V448.14L1147.4,415,1090,448.14v66.28l57.4,33.14Zm121,0V448.14L1268.4,415,1211,448.14v66.28l57.4,33.14Zm121,0V448.14L1389.4,415,1332,448.14v66.28l57.4,33.14Zm121,0V448.14L1510.4,415,1453,448.14v66.28l57.4,33.14Zm121,0V448.14L1631.4,415,1574,448.14v66.28l57.4,33.14Zm121,0V448.14L1752.4,415,1695,448.14v66.28l57.4,33.14Zm121,0V448.14L1873.4,415,1816,448.14v66.28l57.4,33.14Zm121,0V448.14L1994.4,415,1937,448.14v66.28l57.4,33.14Zm-1876,103V551.14L118.4,518,61,551.14v66.28l57.4,33.14Zm121,0V551.14L239.4,518,182,551.14v66.28l57.4,33.14Zm121,0V551.14L360.4,518,303,551.14v66.28l57.4,33.14Zm121,0V551.14L481.4,518,424,551.14v66.28l57.4,33.14Zm121,0V551.14L602.4,518,545,551.14v66.28l57.4,33.14Zm121,0V551.14L723.4,518,666,551.14v66.28l57.4,33.14Zm121,0V551.14L844.4,518,787,551.14v66.28l57.4,33.14Zm121,0V551.14L965.4,518,908,551.14v66.28l57.4,33.14Zm121,0V551.14L1086.4,518,1029,551.14v66.28l57.4,33.14Zm121,0V551.14L1207.4,518,1150,551.14v66.28l57.4,33.14Zm121,0V551.14L1328.4,518,1271,551.14v66.28l57.4,33.14Zm121,0V551.14L1449.4,518,1392,551.14v66.28l57.4,33.14Zm121,0V551.14L1570.4,518,1513,551.14v66.28l57.4,33.14Zm121,0V551.14L1691.4,518,1634,551.14v66.28l57.4,33.14Zm121,0V551.14L1812.4,518,1755,551.14v66.28l57.4,33.14Zm121,0V551.14L1933.4,518,1876,551.14v66.28l57.4,33.14Zm121,0V551.14L2054.4,518,1997,551.14v66.28l57.4,33.14Zm-1996,104V655.14L58.4,622,1,655.14v66.28l57.4,33.14Zm121,0V655.14L179.4,622,122,655.14v66.28l57.4,33.14Zm121,0V655.14L300.4,622,243,655.14v66.28l57.4,33.14Zm121,0V655.14L421.4,622,364,655.14v66.28l57.4,33.14Zm121,0V655.14L542.4,622,485,655.14v66.28l57.4,33.14Zm121,0V655.14L663.4,622,606,655.14v66.28l57.4,33.14Zm121,0V655.14L784.4,622,727,655.14v66.28l57.4,33.14Zm121,0V655.14L905.4,622,848,655.14v66.28l57.4,33.14Zm121,0V655.14L1026.4,622,969,655.14v66.28l57.4,33.14Zm121,0V655.14L1147.4,622,1090,655.14v66.28l57.4,33.14Zm121,0V655.14L1268.4,622,1211,655.14v66.28l57.4,33.14Zm121,0V655.14L1389.4,622,1332,655.14v66.28l57.4,33.14Zm121,0V655.14L1510.4,622,1453,655.14v66.28l57.4,33.14Zm121,0V655.14L1631.4,622,1574,655.14v66.28l57.4,33.14Zm121,0V655.14L1752.4,622,1695,655.14v66.28l57.4,33.14Zm121,0V655.14L1873.4,622,1816,655.14v66.28l57.4,33.14Zm121,0V655.14L1994.4,622,1937,655.14v66.28l57.4,33.14Zm-1876,103V758.14L118.4,725,61,758.14v66.28l57.4,33.14Zm121,0V758.14L239.4,725,182,758.14v66.28l57.4,33.14Zm121,0V758.14L360.4,725,303,758.14v66.28l57.4,33.14Zm121,0V758.14L481.4,725,424,758.14v66.28l57.4,33.14Zm121,0V758.14L602.4,725,545,758.14v66.28l57.4,33.14Zm121,0V758.14L723.4,725,666,758.14v66.28l57.4,33.14Zm121,0V758.14L844.4,725,787,758.14v66.28l57.4,33.14Zm121,0V758.14L965.4,725,908,758.14v66.28l57.4,33.14Zm121,0V758.14L1086.4,725,1029,758.14v66.28l57.4,33.14Zm121,0V758.14L1207.4,725,1150,758.14v66.28l57.4,33.14Zm121,0V758.14L1328.4,725,1271,758.14v66.28l57.4,33.14Zm121,0V758.14L1449.4,725,1392,758.14v66.28l57.4,33.14Zm121,0V758.14L1570.4,725,1513,758.14v66.28l57.4,33.14Zm121,0V758.14L1691.4,725,1634,758.14v66.28l57.4,33.14Zm121,0V758.14L1812.4,725,1755,758.14v66.28l57.4,33.14Zm121,0V758.14L1933.4,725,1876,758.14v66.28l57.4,33.14Zm121,0V758.14L2054.4,725,1997,758.14v66.28l57.4,33.14Zm-1996,104V862.14L58.4,829,1,862.14v66.28l57.4,33.14Zm121,0V862.14L179.4,829,122,862.14v66.28l57.4,33.14Zm121,0V862.14L300.4,829,243,862.14v66.28l57.4,33.14Zm121,0V862.14L421.4,829,364,862.14v66.28l57.4,33.14Zm121,0V862.14L542.4,829,485,862.14v66.28l57.4,33.14Zm121,0V862.14L663.4,829,606,862.14v66.28l57.4,33.14Zm121,0V862.14L784.4,829,727,862.14v66.28l57.4,33.14Zm121,0V862.14L905.4,829,848,862.14v66.28l57.4,33.14Zm121,0V862.14L1026.4,829,969,862.14v66.28l57.4,33.14Zm121,0V862.14L1147.4,829,1090,862.14v66.28l57.4,33.14Zm121,0V862.14L1268.4,829,1211,862.14v66.28l57.4,33.14Zm121,0V862.14L1389.4,829,1332,862.14v66.28l57.4,33.14Zm121,0V862.14L1510.4,829,1453,862.14v66.28l57.4,33.14Zm121,0V862.14L1631.4,829,1574,862.14v66.28l57.4,33.14Zm121,0V862.14L1752.4,829,1695,862.14v66.28l57.4,33.14Zm121,0V862.14L1873.4,829,1816,862.14v66.28l57.4,33.14Zm121,0V862.14L1994.4,829,1937,862.14v66.28l57.4,33.14Zm-1876,103V965.14L118.4,932,61,965.14v66.28l57.4,33.14Zm121,0V965.14L239.4,932,182,965.14v66.28l57.4,33.14Zm121,0V965.14L360.4,932,303,965.14v66.28l57.4,33.14Zm121,0V965.14L481.4,932,424,965.14v66.28l57.4,33.14Zm121,0V965.14L602.4,932,545,965.14v66.28l57.4,33.14Zm121,0V965.14L723.4,932,666,965.14v66.28l57.4,33.14Zm121,0V965.14L844.4,932,787,965.14v66.28l57.4,33.14Zm121,0V965.14L965.4,932,908,965.14v66.28l57.4,33.14Zm121,0V965.14L1086.4,932,1029,965.14v66.28l57.4,33.14Zm121,0V965.14L1207.4,932,1150,965.14v66.28l57.4,33.14Zm121,0V965.14L1328.4,932,1271,965.14v66.28l57.4,33.14Zm121,0V965.14L1449.4,932,1392,965.14v66.28l57.4,33.14Zm121,0V965.14L1570.4,932,1513,965.14v66.28l57.4,33.14Zm121,0V965.14L1691.4,932,1634,965.14v66.28l57.4,33.14Zm121,0V965.14L1812.4,932,1755,965.14v66.28l57.4,33.14Zm121,0V965.14L1933.4,932,1876,965.14v66.28l57.4,33.14Zm121,0V965.14L2054.4,932,1997,965.14v66.28l57.4,33.14Zm-1996,104v-66.28L58.4,1036,1,1069.14v66.28l57.4,33.14Zm121,0v-66.28L179.4,1036,122,1069.14v66.28l57.4,33.14Zm121,0v-66.28L300.4,1036,243,1069.14v66.28l57.4,33.14Zm121,0v-66.28L421.4,1036,364,1069.14v66.28l57.4,33.14Zm121,0v-66.28L542.4,1036,485,1069.14v66.28l57.4,33.14Zm121,0v-66.28L663.4,1036,606,1069.14v66.28l57.4,33.14Zm121,0v-66.28L784.4,1036,727,1069.14v66.28l57.4,33.14Zm121,0v-66.28L905.4,1036,848,1069.14v66.28l57.4,33.14Zm121,0v-66.28L1026.4,1036,969,1069.14v66.28l57.4,33.14Zm121,0v-66.28L1147.4,1036l-57.4,33.14v66.28l57.4,33.14Zm121,0v-66.28L1268.4,1036l-57.4,33.14v66.28l57.4,33.14Zm121,0v-66.28L1389.4,1036l-57.4,33.14v66.28l57.4,33.14Zm121,0v-66.28L1510.4,1036l-57.4,33.14v66.28l57.4,33.14Zm121,0v-66.28L1631.4,1036l-57.4,33.14v66.28l57.4,33.14Zm121,0v-66.28L1752.4,1036l-57.4,33.14v66.28l57.4,33.14Zm121,0v-66.28L1873.4,1036l-57.4,33.14v66.28l57.4,33.14Zm121,0v-66.28L1994.4,1036l-57.4,33.14v66.28l57.4,33.14Z"/></clipPath><radialGradient id="radial-gradient" cx="961" cy="541" r="1555.72" gradientUnits="userSpaceOnUse"><stop offset="0" stop-color="#ffd583"/><stop offset="0.01" stop-color="#fed482"/><stop offset="0.34" stop-color="#d5a040"/><stop offset="0.49" stop-color="#ecbd64"/><stop offset="0.63" stop-color="#ffd583"/><stop offset="0.66" stop-color="#f2c876"/><stop offset="0.78" stop-color="#c99c4a"/><stop offset="0.86" stop-color="#b0812f"/><stop offset="0.92" stop-color="#a67725"/></radialGradient></defs><title>Asset 1</title><g id="Layer_2" data-name="Layer 2"><g id="Layer_1-2" data-name="Layer 1"><rect class="cls-2" x="1" y="1" width="1920" height="1080"/><g class="cls-3"><rect class="cls-4" width="1920" height="1080"/></g><g class="cls-5"><rect class="cls-6" x="1" y="1" width="1920" height="1080"/></g></g></g></svg>